<?xml version="1.0" encoding="UTF-8" standalone="no"?>
<svg
   xmlns:dc="http://purl.org/dc/elements/1.1/"
   xmlns:cc="http://creativecommons.org/ns#"
   xmlns:rdf="http://www.w3.org/1999/02/22-rdf-syntax-ns#"
   xmlns:svg="http://www.w3.org/2000/svg"
   xmlns="http://www.w3.org/2000/svg"
   xmlns:sodipodi="http://sodipodi.sourceforge.net/DTD/sodipodi-0.dtd"
   xmlns:inkscape="http://www.inkscape.org/namespaces/inkscape"
   inkscape:export-ydpi="96"
   inkscape:export-xdpi="96"
   inkscape:export-filename="D:\dev\spelsylt7\src\img\monster1.png"
   sodipodi:docname="monster.svg"
   inkscape:version="1.0 (4035a4fb49, 2020-05-01)"
   id="svg8"
   version="1.1"
   viewBox="0 0 13.229166 13.229167"
   height="50"
   width="50">
  <defs
     id="defs2" />
  <sodipodi:namedview
     inkscape:window-maximized="1"
     inkscape:window-y="-8"
     inkscape:window-x="-8"
     inkscape:window-height="1377"
     inkscape:window-width="2560"
     units="px"
     showgrid="false"
     inkscape:document-rotation="0"
     inkscape:current-layer="layer1"
     inkscape:document-units="mm"
     inkscape:cy="14.353621"
     inkscape:cx="-23.030356"
     inkscape:zoom="7.9195959"
     inkscape:pageshadow="2"
     inkscape:pageopacity="0.0"
     borderopacity="1.0"
     bordercolor="#666666"
     pagecolor="#ffffff"
     id="base" />
  <metadata
     id="metadata5">
    <rdf:RDF>
      <cc:Work
         rdf:about="">
        <dc:format>image/svg+xml</dc:format>
        <dc:type
           rdf:resource="http://purl.org/dc/dcmitype/StillImage" />
        <dc:title></dc:title>
      </cc:Work>
    </rdf:RDF>
  </metadata>
  <g
     id="layer1"
     inkscape:groupmode="layer"
     inkscape:label="Layer 1">
    <path
       d="M 6.5647222,0.40886295 A 4.3703493,3.96875 0 0 0 2.2130498,4.3393723 c -3.76e-5,2.834e-4 -5.168e-4,2.226e-4 -5.168e-4,5.168e-4 v 0.037724 a 4.3703493,3.96875 0 0 0 0,0.016536 v 6.6187179 c 0,0.0036 0.0027,0.0062 0.0062,0.0062 h 8.726082 c 0.0035,0 0.0062,-0.0027 0.0062,-0.0062 V 4.4954352 a 4.3703493,3.96875 0 0 0 0.0021,-0.1178224 4.3703493,3.96875 0 0 0 -4.3702765,-3.96874985 4.3703493,3.96875 0 0 0 -0.018087,0 z"
       style="fill:#370060;fill-opacity:1;stroke:none;stroke-width:0.499999;stroke-linecap:round;stroke-linejoin:bevel;stroke-miterlimit:4;stroke-dasharray:none;stroke-opacity:1"
       id="path863" />
    <path
       id="path835"
       d="m 3.7829185,3.606535 1.558714,2.0121569"
       style="fill:none;stroke:#ffffff;stroke-width:0.31741px;stroke-linecap:butt;stroke-linejoin:miter;stroke-opacity:1" />
    <path
       id="path837"
       d="M 5.7100555,3.521514 3.5278565,5.5053308"
       style="fill:none;stroke:#ffffff;stroke-width:0.31741px;stroke-linecap:butt;stroke-linejoin:miter;stroke-opacity:1" />
    <g
       transform="matrix(-1.1996625,0,0,1.1996625,19.313372,-2.146534)"
       id="g859">
      <path
         id="path835-0"
         d="M 8.1382998,4.8985036 9.4375931,6.5757728"
         style="fill:none;stroke:#ffffff;stroke-width:0.264583px;stroke-linecap:butt;stroke-linejoin:miter;stroke-opacity:1" />
      <path
         id="path837-3"
         d="M 9.7446987,4.8276328 7.9256883,6.4812787"
         style="fill:none;stroke:#ffffff;stroke-width:0.264583px;stroke-linecap:butt;stroke-linejoin:miter;stroke-opacity:1" />
    </g>
    <path
       sodipodi:nodetypes="cc"
       id="path861"
       d="m 4.7367856,7.2230023 c 0.396763,-0.05668 3.870801,-0.2075354 3.870801,-0.2075354"
       style="fill:none;stroke:#ffffff;stroke-width:0.599831;stroke-linecap:round;stroke-linejoin:miter;stroke-miterlimit:4;stroke-dasharray:none;stroke-opacity:1" />
    <path
       id="path891"
       d="m 2.5390605,9.6885203 -1.67043454,1.5033907 0.56794774,1.269531 1.3697564,-0.634766 1.4365737,0.902035 1.1358954,-0.968852 1.403165,0.801809 0.9354434,-1.03567 1.1024867,1.102487 1.1358954,-1.202713 1.0022603,1.236122 1.403165,-1.135896 L 10.289877,9.4212507 7.1828686,10.423511 4.1426775,10.289877 Z"
       style="fill:#370060;stroke:none;stroke-width:0.264583px;stroke-linecap:butt;stroke-linejoin:miter;stroke-opacity:1;fill-opacity:1" />
  </g>
</svg>
