<?xml version="1.0" encoding="UTF-8" standalone="no"?>
<svg
   xmlns:dc="http://purl.org/dc/elements/1.1/"
   xmlns:cc="http://creativecommons.org/ns#"
   xmlns:rdf="http://www.w3.org/1999/02/22-rdf-syntax-ns#"
   xmlns:svg="http://www.w3.org/2000/svg"
   xmlns="http://www.w3.org/2000/svg"
   xmlns:sodipodi="http://sodipodi.sourceforge.net/DTD/sodipodi-0.dtd"
   xmlns:inkscape="http://www.inkscape.org/namespaces/inkscape"
   inkscape:export-ydpi="96"
   inkscape:export-xdpi="96"
   inkscape:export-filename="D:\dev\spelsylt7\src\img\pencil.png"
   sodipodi:docname="pencil.svg"
   inkscape:version="1.0 (4035a4fb49, 2020-05-01)"
   id="svg8"
   version="1.1"
   viewBox="0 0 15.874999 15.875"
   height="60"
   width="60">
  <defs
     id="defs2">
    <inkscape:path-effect
       effect="perspective-envelope"
       up_left_point="2.1759407,2.0656156"
       up_right_point="19.015917,2.0656156"
       down_left_point="0.37258879,19.172387"
       down_right_point="20.819269,19.172387"
       id="path-effect3275"
       is_visible="true"
       lpeversion="1"
       deform_type="perspective"
       horizontal_mirror="false"
       vertical_mirror="true"
       overflow_perspective="false" />
    <marker
       inkscape:isstock="true"
       style="overflow:visible"
       id="Arrow1Lstart"
       refX="0"
       refY="0"
       orient="auto"
       inkscape:stockid="Arrow1Lstart">
      <path
         transform="matrix(0.8,0,0,0.8,10,0)"
         style="fill:#ffffff;fill-opacity:1;fill-rule:evenodd;stroke:#b9b9b9;stroke-width:1pt;stroke-opacity:1"
         d="M 0,0 5,-5 -12.5,0 5,5 Z"
         id="path2298" />
    </marker>
    <inkscape:path-effect
       overflow_perspective="false"
       vertical_mirror="true"
       horizontal_mirror="false"
       deform_type="perspective"
       lpeversion="1"
       is_visible="true"
       id="path-effect2296"
       down_right_point="21.705316,19.930547"
       down_left_point="-0.55761317,19.930547"
       up_right_point="19.741775,1.4994556"
       up_left_point="1.4059282,1.4994556"
       effect="perspective-envelope" />
  </defs>
  <sodipodi:namedview
     inkscape:window-maximized="1"
     inkscape:window-y="-8"
     inkscape:window-x="-8"
     inkscape:window-height="1377"
     inkscape:window-width="2560"
     units="px"
     showgrid="false"
     inkscape:document-rotation="0"
     inkscape:current-layer="layer1"
     inkscape:document-units="mm"
     inkscape:cy="23.66591"
     inkscape:cx="7.9915241"
     inkscape:zoom="5.6"
     inkscape:pageshadow="2"
     inkscape:pageopacity="0.0"
     borderopacity="1.0"
     bordercolor="#666666"
     pagecolor="#ffffff"
     id="base" />
  <metadata
     id="metadata5">
    <rdf:RDF>
      <cc:Work
         rdf:about="">
        <dc:format>image/svg+xml</dc:format>
        <dc:type
           rdf:resource="http://purl.org/dc/dcmitype/StillImage" />
        <dc:title />
      </cc:Work>
    </rdf:RDF>
  </metadata>
  <g
     style="display:inline"
     id="layer1"
     inkscape:groupmode="layer"
     inkscape:label="Layer 1">
    <rect
       ry="0"
       y="0.69499683"
       x="13.115551"
       height="10.559042"
       width="0.4455044"
       id="rect1152-8"
       style="display:inline;fill:#7f6400;fill-opacity:1;stroke:none;stroke-width:0.125785;stroke-linecap:round;stroke-linejoin:bevel;stroke-miterlimit:4;stroke-dasharray:none;stroke-opacity:1"
       transform="matrix(0.96233297,0.27187361,-0.3643636,0.93125677,0,0)" />
    <rect
       transform="matrix(0.98910223,0.14723035,-0.22359849,0.97468134,0,0)"
       style="display:inline;fill:#7f6400;fill-opacity:1;stroke:none;stroke-width:0.125675;stroke-linecap:round;stroke-linejoin:bevel;stroke-miterlimit:4;stroke-dasharray:none;stroke-opacity:1"
       id="rect1152-8-0"
       width="0.44760093"
       height="10.491241"
       x="10.836921"
       y="2.6833506"
       ry="0" />
    <rect
       style="fill:#7f6400;fill-opacity:1;stroke:none;stroke-width:0.142484;stroke-linecap:round;stroke-linejoin:bevel;stroke-miterlimit:4;stroke-dasharray:none;stroke-opacity:1"
       id="rect1152"
       width="0.52923602"
       height="11.405323"
       x="7.6190586"
       y="2.7862525"
       ry="0" />
    <path
       style="fill:#000000;fill-opacity:0;stroke:#b1d4e0;stroke-width:0.504295px;stroke-linecap:butt;stroke-linejoin:miter;stroke-opacity:1"
       d="m 3.0862644,6.9872634 c 0,0 1.8178324,0.4667404 4.6960674,0.4667404 2.8782352,0 4.8475542,-0.4667404 4.8475542,-0.4667404"
       id="path1203" />
    <rect
       transform="matrix(0.99478142,-0.10202906,0.1202803,0.99273997,0,0)"
       ry="0"
       y="4.512888"
       x="4.8492193"
       height="10.497026"
       width="0.50327981"
       id="rect1152-37"
       style="display:inline;fill:#7f6400;fill-opacity:1;stroke:none;stroke-width:0.133299;stroke-linecap:round;stroke-linejoin:bevel;stroke-miterlimit:4;stroke-dasharray:none;stroke-opacity:1" />
    <rect
       ry="0"
       y="5.2537951"
       x="1.5724249"
       height="10.142308"
       width="0.44752282"
       id="rect1152-3"
       style="display:inline;fill:#7f6400;fill-opacity:1;stroke:none;stroke-width:0.123556;stroke-linecap:round;stroke-linejoin:bevel;stroke-miterlimit:4;stroke-dasharray:none;stroke-opacity:1"
       transform="matrix(0.98226322,-0.18750723,0.31419075,0.94935987,0,0)" />
    <path
       sodipodi:nodetypes="cscccccccc"
       id="path1175"
       style="fill:#b7edff;fill-opacity:1;stroke:#b1d4e0;stroke-width:0.504295px;stroke-linecap:butt;stroke-linejoin:miter;stroke-opacity:1"
       d="m 12.585596,7.0007733 c 0,0 -2.226977,0.534942 -4.6954256,0.5403199 C 5.0803238,7.5472148 3.0170898,7.0436203 3.0170898,7.0436203 l 0.9039465,7.8781327 h 0.034365 c -6.007e-4,0.241805 1.7322553,0.437855 3.8698916,0.437828 2.1376369,2.7e-5 3.8704941,-0.196023 3.8698931,-0.437828 -4e-4,-0.01431 -0.007,-0.02861 -0.01979,-0.04285 h 0.0062 z" />
    <path
       style="fill:#b93700;fill-opacity:1;stroke:none;stroke-width:0.268461px;stroke-linecap:butt;stroke-linejoin:miter;stroke-opacity:1"
       d="m 7.9449225,4.3751533 c 0,0 -1.7093394,-0.6238454 -1.1217541,-1.9790958 0.7267983,-1.67634056 0.9615035,-2.19421409 0.9615035,-2.19421409 0,0 1.1484624,1.93607149 1.0416286,2.75352379 C 8.7194668,3.77282 7.9449225,4.3751533 7.9449225,4.3751533 Z"
       id="path1154"
       sodipodi:nodetypes="cscsc" />
    <path
       sodipodi:nodetypes="cscsc"
       id="path1154-5"
       d="m 3.965427,6.3941165 c 0,0 -1.622576,-0.2122039 -1.4818451,-1.3336745 0.1740728,-1.3871736 0.2365217,-1.8172771 0.2365217,-1.8172771 0,0 1.4931777,1.2968356 1.6193027,1.9352584 C 4.4655305,5.8168458 3.965427,6.3941165 3.965427,6.3941165 Z"
       style="display:inline;fill:#370060;fill-opacity:1;stroke:none;stroke-width:0.22289px;stroke-linecap:butt;stroke-linejoin:miter;stroke-opacity:1" />
    <path
       style="display:inline;fill:#c8009f;fill-opacity:1;stroke:none;stroke-width:0.28195px;stroke-linecap:butt;stroke-linejoin:miter;stroke-opacity:1"
       d="m 10.054454,5.8497777 c 0,0 -1.5523,-0.9208042 -0.6337091,-2.2824708 1.1362291,-1.6842774 1.4973971,-2.2030926 1.4973971,-2.2030926 0,0 0.670905,2.2404398 0.363829,3.0985292 -0.307068,0.8580898 -1.227521,1.3870346 -1.227521,1.3870346 z"
       id="path1154-8-0"
       sodipodi:nodetypes="cscsc" />
    <path
       sodipodi:nodetypes="cscsc"
       id="path1154-8"
       d="m 12.060335,5.8282416 c 0,0 -1.400441,-1.1079088 -0.28763,-2.3408528 1.376464,-1.525057 1.811527,-1.993418 1.811527,-1.993418 0,0 0.330738,2.3039103 -0.101297,3.115165 -0.432028,0.8112558 -1.422604,1.2191054 -1.422604,1.2191054 z"
       style="display:inline;fill:#00c85c;fill-opacity:1;stroke:none;stroke-width:0.28195px;stroke-linecap:butt;stroke-linejoin:miter;stroke-opacity:1" />
    <path
       sodipodi:nodetypes="cscsc"
       id="path1154-4"
       d="m 5.8508831,5.4054937 c 0,0 -1.6860831,-0.4041465 -1.2802598,-1.6994224 0.5019725,-1.6021567 0.6666726,-2.0980999 0.6666726,-2.0980999 0,0 1.300763,1.6575206 1.2901922,2.4147761 -0.010575,0.757256 -0.676605,1.3827462 -0.676605,1.3827462 z"
       style="display:inline;fill:#0077b9;fill-opacity:1;stroke:none;stroke-width:0.251133px;stroke-linecap:butt;stroke-linejoin:miter;stroke-opacity:1" />
    <ellipse
       ry="1.0490689"
       rx="0.99102497"
       cy="9.3199692"
       cx="5.6562738"
       id="path1864"
       style="fill:#000000;fill-opacity:1;stroke-width:0.865357;stroke-linecap:round;stroke-linejoin:bevel" />
    <ellipse
       style="display:inline;fill:#000000;fill-opacity:1;stroke-width:0.865357;stroke-linecap:round;stroke-linejoin:bevel"
       id="path1864-4"
       cx="9.7802162"
       cy="9.329771"
       rx="0.99102497"
       ry="1.0490689" />
    <path
       sodipodi:nodetypes="sscccccsss"
       d="m 6.0922756,10.932469 c -0.2980328,0 -0.5379515,0.22074 -0.5379515,0.494949 v 0.01461 c -0.0166,0.08061 -0.025008,0.161993 -0.024972,0.243498 7.03e-5,0.911111 1.0253783,1.649687 2.290134,1.649685 1.2647574,2e-6 2.2900679,-0.738574 2.2901359,-1.649685 -2.7e-5,-0.08121 -0.0085,-0.162292 -0.02498,-0.242615 v -0.01544 c 0,-0.274209 -0.2399186,-0.49495 -0.5379511,-0.49495 z"
       style="fill:#000000;fill-opacity:1;stroke:none;stroke-width:0.32435;stroke-linecap:round;stroke-linejoin:bevel;stroke-miterlimit:4;stroke-dasharray:none;stroke-opacity:1;paint-order:stroke fill markers"
       id="path2692" />
    <path
       style="fill:#9e3235;fill-opacity:1;stroke:none;stroke-width:0.263627px;stroke-linecap:butt;stroke-linejoin:miter;stroke-opacity:1"
       d="m 5.5541706,11.923045 h 2.4048519 c 0,0 0.5521354,0.09031 0.5521354,0.496711 0,0.406401 -0.01227,0.846666 -0.01227,0.846666 0,0 -0.4907844,0.06773 -0.7239081,0.06773 -0.2331237,0 -1.9017961,-0.07902 -2.2208097,-1.411109 z"
       id="path857" />
    <ellipse
       ry="0.48041475"
       rx="0.2877169"
       cy="9.3395777"
       cx="5.2939658"
       id="path2476"
       style="fill:#ffffff;fill-opacity:1;stroke:none;stroke-width:0.865357;stroke-linecap:round;stroke-linejoin:bevel" />
    <ellipse
       style="display:inline;fill:#ffffff;fill-opacity:1;stroke:none;stroke-width:0.865357;stroke-linecap:round;stroke-linejoin:bevel"
       id="path2476-5"
       cx="9.4818449"
       cy="9.3101635"
       rx="0.2877169"
       ry="0.48041475" />
  </g>
</svg>
