<?xml version="1.0" encoding="UTF-8" standalone="no"?>
<svg
   xmlns:dc="http://purl.org/dc/elements/1.1/"
   xmlns:cc="http://creativecommons.org/ns#"
   xmlns:rdf="http://www.w3.org/1999/02/22-rdf-syntax-ns#"
   xmlns:svg="http://www.w3.org/2000/svg"
   xmlns="http://www.w3.org/2000/svg"
   xmlns:sodipodi="http://sodipodi.sourceforge.net/DTD/sodipodi-0.dtd"
   xmlns:inkscape="http://www.inkscape.org/namespaces/inkscape"
   width="60"
   height="60"
   viewBox="0 0 15.874999 15.875"
   version="1.1"
   id="svg8"
   inkscape:version="1.0 (4035a4fb49, 2020-05-01)"
   sodipodi:docname="tree.svg"
   inkscape:export-filename="D:\dev\spelsylt7\src\img\tree.png"
   inkscape:export-xdpi="96"
   inkscape:export-ydpi="96">
  <defs
     id="defs2" />
  <sodipodi:namedview
     id="base"
     pagecolor="#ffffff"
     bordercolor="#666666"
     borderopacity="1.0"
     inkscape:pageopacity="0.0"
     inkscape:pageshadow="2"
     inkscape:zoom="5.6"
     inkscape:cx="66.88367"
     inkscape:cy="27.90503"
     inkscape:document-units="mm"
     inkscape:current-layer="layer1"
     inkscape:document-rotation="0"
     showgrid="false"
     units="px"
     inkscape:window-width="2560"
     inkscape:window-height="1377"
     inkscape:window-x="-8"
     inkscape:window-y="-8"
     inkscape:window-maximized="1" />
  <metadata
     id="metadata5">
    <rdf:RDF>
      <cc:Work
         rdf:about="">
        <dc:format>image/svg+xml</dc:format>
        <dc:type
           rdf:resource="http://purl.org/dc/dcmitype/StillImage" />
        <dc:title></dc:title>
      </cc:Work>
    </rdf:RDF>
  </metadata>
  <g
     inkscape:label="Layer 1"
     inkscape:groupmode="layer"
     id="layer1">
    <rect
       y="8.4157619"
       x="6.9392209"
       height="6.6465716"
       width="2.1781673"
       id="rect2082"
       style="fill:#985c00;fill-opacity:1;stroke:#523100;stroke-width:0.248012;stroke-linejoin:round;stroke-miterlimit:4;stroke-dasharray:none;stroke-opacity:1" />
    <path
       id="path931"
       style="fill:#2bbe28;fill-opacity:1;stroke:#10920e;stroke-width:0.542518;stroke-linecap:round;stroke-linejoin:round;stroke-miterlimit:4;stroke-dasharray:none;stroke-opacity:1"
       d="m 8.0207926,1.0768239 a 2.2159824,2.2610439 0 0 0 -1.9333178,1.176596 2.8772029,2.2794262 0 0 0 -0.00388,0 2.8772029,2.2794262 0 0 0 -2.8748193,2.1956682 3.0022987,3.1066373 0 0 0 -1.5391356,2.7125971 3.0022987,3.1066373 0 0 0 3.001978,3.1066918 3.0022987,3.1066373 0 0 0 1.1195221,-0.224628 2.5019155,1.4705975 0 0 0 2.2047676,0.775677 2.5019155,1.4705975 0 0 0 2.3695174,-0.9991682 3.5741648,3.7316414 0 0 0 0.279189,-0.139326 1.9657908,2.3897209 0 0 0 0.99679,0.3298332 1.9657908,2.3897209 0 0 0 1.965937,-2.3895872 1.9657908,2.3897209 0 0 0 -1.12284,-2.1587044 2.0551447,2.3897209 0 0 0 0.372069,-1.371084 2.0551447,2.3897209 0 0 0 -2.054946,-2.3895877 2.0551447,2.3897209 0 0 0 -0.9868384,0.2940069 2.2159824,2.2610439 0 0 0 -1.782943,-0.9189847 2.2159824,2.2610439 0 0 0 -0.01106,0 z" />
    <ellipse
       style="fill:#231500;fill-opacity:1;stroke:none;stroke-width:0.576327;stroke-linecap:round;stroke-linejoin:round;stroke-miterlimit:4;stroke-dasharray:none;stroke-opacity:1"
       id="path958"
       cx="5.5754848"
       cy="5.0697417"
       rx="0.82793808"
       ry="1.1937714" />
    <ellipse
       style="fill:#231500;fill-opacity:1;stroke:none;stroke-width:0.576327;stroke-linecap:round;stroke-linejoin:round;stroke-miterlimit:4;stroke-dasharray:none;stroke-opacity:1"
       id="path960"
       cx="10.257035"
       cy="5.0625677"
       rx="0.84719247"
       ry="1.4440782" />
    <path
       style="fill:none;stroke:#000000;stroke-width:0.576328;stroke-linecap:round;stroke-linejoin:miter;stroke-miterlimit:4;stroke-dasharray:none;stroke-opacity:1"
       d="m 5.9055459,7.4308556 c 0,0 0.2310526,2.2720162 2.1179817,1.6558762 1.886928,-0.61614 2.2335074,-1.8484201 2.2335074,-1.8484201"
       id="path962" />
    <path
       style="fill:none;stroke:#000000;stroke-width:0.352999;stroke-linecap:round;stroke-linejoin:miter;stroke-miterlimit:4;stroke-dasharray:none;stroke-opacity:1"
       d="m 4.3805319,4.4856239 c 0,0 0.066713,-1.0006904 1.1007593,-1.0006904"
       id="path3408" />
    <path
       id="path3408-7"
       d="m 11.402044,4.1854169 c 0,0 -0.06671,-1.0006904 -1.10076,-1.0006904"
       style="fill:none;stroke:#000000;stroke-width:0.352999;stroke-linecap:round;stroke-linejoin:miter;stroke-miterlimit:4;stroke-dasharray:none;stroke-opacity:1" />
    <ellipse
       ry="0.59335703"
       rx="0.26088014"
       cy="4.8191872"
       cx="5.2811532"
       id="path958-7"
       style="fill:#ffffff;fill-opacity:1;stroke:none;stroke-width:0.228081;stroke-linecap:round;stroke-linejoin:round;stroke-miterlimit:4;stroke-dasharray:none;stroke-opacity:1" />
    <ellipse
       style="fill:#ffffff;fill-opacity:1;stroke:none;stroke-width:0.228081;stroke-linecap:round;stroke-linejoin:round;stroke-miterlimit:4;stroke-dasharray:none;stroke-opacity:1"
       id="path958-7-2"
       cx="10.084467"
       cy="4.8525438"
       rx="0.26088014"
       ry="0.59335703" />
  </g>
</svg>
