<?xml version="1.0" encoding="UTF-8" standalone="no"?>
<svg
   xmlns:dc="http://purl.org/dc/elements/1.1/"
   xmlns:cc="http://creativecommons.org/ns#"
   xmlns:rdf="http://www.w3.org/1999/02/22-rdf-syntax-ns#"
   xmlns:svg="http://www.w3.org/2000/svg"
   xmlns="http://www.w3.org/2000/svg"
   xmlns:sodipodi="http://sodipodi.sourceforge.net/DTD/sodipodi-0.dtd"
   xmlns:inkscape="http://www.inkscape.org/namespaces/inkscape"
   inkscape:export-ydpi="96"
   inkscape:export-xdpi="96"
   inkscape:export-filename="D:\dev\spelsylt7\src\img\tree.png"
   sodipodi:docname="tree.svg"
   inkscape:version="1.0 (4035a4fb49, 2020-05-01)"
   id="svg8"
   version="1.1"
   viewBox="0 0 21.166666 21.166667"
   height="80"
   width="80">
  <defs
     id="defs2" />
  <sodipodi:namedview
     inkscape:window-maximized="1"
     inkscape:window-y="-8"
     inkscape:window-x="-8"
     inkscape:window-height="1377"
     inkscape:window-width="2560"
     units="px"
     showgrid="false"
     inkscape:document-rotation="0"
     inkscape:current-layer="layer1"
     inkscape:document-units="mm"
     inkscape:cy="27.90503"
     inkscape:cx="66.88367"
     inkscape:zoom="5.6"
     inkscape:pageshadow="2"
     inkscape:pageopacity="0.0"
     borderopacity="1.0"
     bordercolor="#666666"
     pagecolor="#ffffff"
     id="base" />
  <metadata
     id="metadata5">
    <rdf:RDF>
      <cc:Work
         rdf:about="">
        <dc:format>image/svg+xml</dc:format>
        <dc:type
           rdf:resource="http://purl.org/dc/dcmitype/StillImage" />
        <dc:title></dc:title>
      </cc:Work>
    </rdf:RDF>
  </metadata>
  <g
     id="layer1"
     inkscape:groupmode="layer"
     inkscape:label="Layer 1">
    <rect
       style="fill:#985c00;fill-opacity:1;stroke:#523100;stroke-width:0.351293;stroke-linejoin:round;stroke-miterlimit:4;stroke-dasharray:none;stroke-opacity:1"
       id="rect2082"
       width="3.0852277"
       height="9.414422"
       x="9.3883486"
       y="11.000184" />
    <path
       d="m 10.920322,0.6050713 a 3.1387902,3.2026168 0 0 0 -2.7384152,1.6665693 4.0753646,3.2286541 0 0 0 -0.00549,0 4.0753646,3.2286541 0 0 0 -4.0719885,3.1100165 4.2525544,4.4003431 0 0 0 -2.1800822,3.8422115 4.2525544,4.4003431 0 0 0 4.2521002,4.4004194 4.2525544,4.4003431 0 0 0 1.5857278,-0.31817 3.5437952,2.0830026 0 0 0 3.1229049,1.098695 3.5437952,2.0830026 0 0 0 3.356262,-1.415255 5.0625644,5.2856194 0 0 0 0.395453,-0.197346 2.7844106,3.3848792 0 0 0 1.411885,0.467187 2.7844106,3.3848792 0 0 0 2.784618,-3.3846905 2.7844106,3.3848792 0 0 0 -1.590427,-3.0576592 2.9109744,3.3848792 0 0 0 0.52701,-1.9420484 2.9109744,3.3848792 0 0 0 -2.910692,-3.3846905 2.9109744,3.3848792 0 0 0 -1.39779,0.416441 3.1387902,3.2026168 0 0 0 -2.525419,-1.3016801 3.1387902,3.2026168 0 0 0 -0.01566,0 z"
       style="fill:#2bbe28;fill-opacity:1;stroke:#10920e;stroke-width:0.76844;stroke-linecap:round;stroke-linejoin:round;stroke-miterlimit:4;stroke-dasharray:none;stroke-opacity:1"
       id="path931" />
    <ellipse
       ry="1.6908969"
       rx="1.1727186"
       cy="6.2607713"
       cx="7.456707"
       id="path958"
       style="fill:#231500;fill-opacity:1;stroke:none;stroke-width:0.816329;stroke-linecap:round;stroke-linejoin:round;stroke-miterlimit:4;stroke-dasharray:none;stroke-opacity:1" />
    <ellipse
       ry="2.0454397"
       rx="1.1999912"
       cy="6.2506099"
       cx="14.08781"
       id="path960"
       style="fill:#231500;fill-opacity:1;stroke:none;stroke-width:0.816329;stroke-linecap:round;stroke-linejoin:round;stroke-miterlimit:4;stroke-dasharray:none;stroke-opacity:1" />
    <path
       id="path962"
       d="m 7.9242167,9.6051305 c 0,0 0.3272706,3.2181585 2.9999783,2.3454375 2.672707,-0.872721 3.163613,-2.6181631 3.163613,-2.6181631"
       style="fill:none;stroke:#000000;stroke-width:0.81633;stroke-linecap:round;stroke-linejoin:miter;stroke-miterlimit:4;stroke-dasharray:none;stroke-opacity:1" />
    <path
       id="path3408"
       d="m 5.7641368,5.4334076 c 0,0 0.094494,-1.4174107 1.5591517,-1.4174107"
       style="fill:none;stroke:#000000;stroke-width:0.5;stroke-linecap:round;stroke-linejoin:miter;stroke-opacity:1;stroke-miterlimit:4;stroke-dasharray:none" />
    <path
       style="fill:none;stroke:#000000;stroke-width:0.499999;stroke-linecap:round;stroke-linejoin:miter;stroke-miterlimit:4;stroke-dasharray:none;stroke-opacity:1"
       d="m 15.709636,5.0081845 c 0,0 -0.09449,-1.4174107 -1.559152,-1.4174107"
       id="path3408-7" />
    <ellipse
       style="fill:#ffffff;fill-opacity:1;stroke:none;stroke-width:0.323061;stroke-linecap:round;stroke-linejoin:round;stroke-miterlimit:4;stroke-dasharray:none;stroke-opacity:1"
       id="path958-7"
       cx="7.0398064"
       cy="5.9058781"
       rx="0.3695192"
       ry="0.84045041" />
    <ellipse
       ry="0.84045041"
       rx="0.3695192"
       cy="5.953125"
       cx="13.843378"
       id="path958-7-2"
       style="fill:#ffffff;fill-opacity:1;stroke:none;stroke-width:0.323062;stroke-linecap:round;stroke-linejoin:round;stroke-miterlimit:4;stroke-dasharray:none;stroke-opacity:1" />
  </g>
</svg>
