<?xml version="1.0" encoding="UTF-8" standalone="no"?>
<svg
   xmlns:dc="http://purl.org/dc/elements/1.1/"
   xmlns:cc="http://creativecommons.org/ns#"
   xmlns:rdf="http://www.w3.org/1999/02/22-rdf-syntax-ns#"
   xmlns:svg="http://www.w3.org/2000/svg"
   xmlns="http://www.w3.org/2000/svg"
   xmlns:sodipodi="http://sodipodi.sourceforge.net/DTD/sodipodi-0.dtd"
   xmlns:inkscape="http://www.inkscape.org/namespaces/inkscape"
   inkscape:export-ydpi="96"
   inkscape:export-xdpi="96"
   inkscape:export-filename="D:\dev\spelsylt7\src\img\walk.png"
   sodipodi:docname="walk.svg"
   inkscape:version="1.0 (4035a4fb49, 2020-05-01)"
   id="svg8"
   version="1.1"
   viewBox="0 0 21.166666 21.166667"
   height="80"
   width="80">
  <defs
     id="defs2" />
  <sodipodi:namedview
     inkscape:window-maximized="1"
     inkscape:window-y="-8"
     inkscape:window-x="-8"
     inkscape:window-height="1377"
     inkscape:window-width="2560"
     units="px"
     showgrid="false"
     inkscape:document-rotation="0"
     inkscape:current-layer="layer1"
     inkscape:document-units="mm"
     inkscape:cy="27.90503"
     inkscape:cx="66.88367"
     inkscape:zoom="5.6"
     inkscape:pageshadow="2"
     inkscape:pageopacity="0.0"
     borderopacity="1.0"
     bordercolor="#666666"
     pagecolor="#ffffff"
     id="base" />
  <metadata
     id="metadata5">
    <rdf:RDF>
      <cc:Work
         rdf:about="">
        <dc:format>image/svg+xml</dc:format>
        <dc:type
           rdf:resource="http://purl.org/dc/dcmitype/StillImage" />
        <dc:title></dc:title>
      </cc:Work>
    </rdf:RDF>
  </metadata>
  <g
     id="layer1"
     inkscape:groupmode="layer"
     inkscape:label="Layer 1">
    <rect
       style="fill:#00ffff;stroke:none;stroke-width:0.478999;stroke-linecap:round;stroke-linejoin:round;fill-opacity:1"
       id="rect4747"
       width="21.119419"
       height="14.410342"
       x="0"
       y="0" />
    <path
       style="fill:#1a7100;stroke:none;stroke-width:0.264583px;stroke-linecap:butt;stroke-linejoin:miter;stroke-opacity:1;fill-opacity:1"
       d="m -0.18898809,13.276413 c 0,0 3.73251479,-4.5357138 5.81138389,-5.0081839 2.078869,-0.4724702 6.4255952,-1.7481399 8.3154762,-1.2756698 1.889881,0.4724704 3.590774,0.9449406 4.393973,2.4568454 0.8032,1.5119043 2.834821,1.7481403 2.834821,1.7481403 v 10.016368 l -21.21391302,-0.09449 z"
       id="path4717" />
    <rect
       style="fill:#985c00;fill-opacity:1;stroke:#523100;stroke-width:0.238804;stroke-linejoin:round;stroke-miterlimit:4;stroke-dasharray:none;stroke-opacity:1"
       id="rect2082"
       width="2.3945172"
       height="5.6054082"
       x="1.9143203"
       y="12.692079" />
    <rect
       y="8.8537779"
       x="6.2232852"
       height="4.5793281"
       width="2.0833967"
       id="rect2082-7"
       style="fill:#985c00;fill-opacity:1;stroke:#523100;stroke-width:0.201333;stroke-linejoin:round;stroke-miterlimit:4;stroke-dasharray:none;stroke-opacity:1" />
    <path
       style="fill:#ffb900;stroke:#bb8800;stroke-width:0.271663px;stroke-linecap:butt;stroke-linejoin:miter;stroke-opacity:1;fill-opacity:1"
       d="m -2.0712711e-4,21.070184 c 0,0 7.97770702711,-3.758955 8.42914672711,-5.307209 0.4514397,-1.548253 0.2623575,-4.098638 0.9957406,-5.406657 0.4718302,-0.841529 1.2047438,-3.172838 3.8312678,-3.3618246 0.300183,-0.021599 1.992474,0.4229114 1.992474,0.4229114 0,0 -2.457838,1.45442 -2.006399,3.7533422 0.451439,2.298921 1.805759,5.160844 2.407678,5.536178 0.60192,0.375335 5.316957,1.87667 5.417277,4.457092"
       id="path4691"
       sodipodi:nodetypes="cssscssc" />
    <path
       d="m 7.6536687,4.1721946 a 1.504214,1.4629468 0 0 0 -1.3123406,0.7612845 1.953052,1.4748405 0 0 0 -0.00264,0 A 1.953052,1.4748405 0 0 0 4.3872547,6.3541258 2.0379674,2.0100649 0 0 0 3.3424859,8.1092385 2.0379674,2.0100649 0 0 0 5.3802355,10.119339 2.0379674,2.0100649 0 0 0 6.1401698,9.9739995 1.6983061,0.95150998 0 0 0 7.6367706,10.47588 1.6983061,0.95150998 0 0 0 9.2452043,9.8293955 2.4261515,2.4144566 0 0 0 9.4347185,9.7392455 1.3343834,1.5462036 0 0 0 10.111342,9.9526545 1.3343834,1.5462036 0 0 0 11.445829,8.4065406 1.3343834,1.5462036 0 0 0 10.683642,7.0098093 1.395037,1.5462036 0 0 0 10.936203,6.1226869 1.395037,1.5462036 0 0 0 9.5413014,4.5765692 1.395037,1.5462036 0 0 0 8.8714337,4.766798 1.504214,1.4629468 0 0 0 7.6611674,4.1721946 a 1.504214,1.4629468 0 0 0 -0.00751,0 z"
       style="fill:#2bbe28;fill-opacity:1;stroke:#10920e;stroke-width:0.359538;stroke-linecap:round;stroke-linejoin:round;stroke-miterlimit:4;stroke-dasharray:none;stroke-opacity:1"
       id="path931-4-8" />
    <path
       id="path931-4"
       style="fill:#2bbe28;fill-opacity:1;stroke:#10920e;stroke-width:0.426453;stroke-linecap:round;stroke-linejoin:round;stroke-miterlimit:4;stroke-dasharray:none;stroke-opacity:1"
       d="m 3.5583078,6.9615021 a 1.7288434,1.7907462 0 0 0 -1.508317,0.9318638 2.2447079,1.8053049 0 0 0 -0.00303,0 2.2447079,1.8053049 0 0 0 -2.24284808,1.7389685 2.342304,2.4604559 0 0 0 -1.20078762,2.1483766 2.342304,2.4604559 0 0 0 2.34205362,2.460499 2.342304,2.4604559 0 0 0 0.87341788,-0.177905 1.9519199,1.1647128 0 0 0 1.7200933,0.614337 1.9519199,1.1647128 0 0 0 1.8486267,-0.791342 2.7884569,2.9554589 0 0 0 0.217815,-0.110346 1.5336514,1.8926582 0 0 0 0.777666,0.261228 1.5336514,1.8926582 0 0 0 1.533766,-1.892553 1.5336514,1.8926582 0 0 0 -0.876007,-1.709694 1.6033626,1.8926582 0 0 0 0.290277,-1.0858978 1.6033626,1.8926582 0 0 0 -1.603207,-1.8925528 1.6033626,1.8926582 0 0 0 -0.7699015,0.2328533 1.7288434,1.7907462 0 0 0 -1.3909995,-0.7278356 1.7288434,1.7907462 0 0 0 -0.00863,0 z" />
    <rect
       y="9.7398577"
       x="15.474336"
       height="5.2134452"
       width="1.8058285"
       id="rect2082-1"
       style="fill:#985c00;fill-opacity:1;stroke:#523100;stroke-width:0.2;stroke-linejoin:round;stroke-miterlimit:4;stroke-dasharray:none;stroke-opacity:1" />
    <path
       d="m 16.714151,4.4099955 a 1.3038095,1.6655268 0 0 0 -1.137499,0.8667026 1.6928495,1.6790675 0 0 0 -0.0023,0 1.6928495,1.6790675 0 0 0 -1.691448,1.6173695 1.7664516,2.2884066 0 0 0 -0.905575,1.9981496 1.7664516,2.2884066 0 0 0 1.766263,2.2884468 1.7664516,2.2884066 0 0 0 0.65869,-0.165465 1.472043,1.0832693 0 0 0 1.297209,0.571379 1.472043,1.0832693 0 0 0 1.394146,-0.736006 2.1029185,2.748796 0 0 0 0.164264,-0.102632 1.1566052,1.7603125 0 0 0 0.586479,0.242961 1.1566052,1.7603125 0 0 0 1.156691,-1.7602138 1.1566052,1.7603125 0 0 0 -0.660656,-1.5901426 1.209178,1.7603125 0 0 0 0.218914,-1.0099652 1.209178,1.7603125 0 0 0 -1.209061,-1.7602152 1.209178,1.7603125 0 0 0 -0.580623,0.216572 1.3038095,1.6655268 0 0 0 -1.049023,-0.6769417 1.3038095,1.6655268 0 0 0 -0.0065,0 z"
       style="fill:#2bbe28;fill-opacity:1;stroke:#10920e;stroke-width:0.357158;stroke-linecap:round;stroke-linejoin:round;stroke-miterlimit:4;stroke-dasharray:none;stroke-opacity:1"
       id="path931-4-6" />
    <ellipse
       style="fill:#231500;fill-opacity:1;stroke:none;stroke-width:0.5712;stroke-linecap:round;stroke-linejoin:round;stroke-miterlimit:4;stroke-dasharray:none;stroke-opacity:1"
       id="path958-6"
       cx="9.9364223"
       cy="15.315145"
       rx="0.82057089"
       ry="1.1831489" />
    <ellipse
       style="fill:#231500;fill-opacity:1;stroke:none;stroke-width:0.5712;stroke-linecap:round;stroke-linejoin:round;stroke-miterlimit:4;stroke-dasharray:none;stroke-opacity:1"
       id="path960-3"
       cx="12.92267"
       cy="15.071799"
       rx="0.83965397"
       ry="1.4312284" />
    <ellipse
       ry="0.58807725"
       rx="0.25855878"
       cy="15.066821"
       cx="9.6447096"
       id="path958-7-4"
       style="fill:#ffffff;fill-opacity:1;stroke:none;stroke-width:0.226052;stroke-linecap:round;stroke-linejoin:round;stroke-miterlimit:4;stroke-dasharray:none;stroke-opacity:1" />
    <ellipse
       style="fill:#ffffff;fill-opacity:1;stroke:none;stroke-width:0.226052;stroke-linecap:round;stroke-linejoin:round;stroke-miterlimit:4;stroke-dasharray:none;stroke-opacity:1"
       id="path958-7-2-2"
       cx="12.751637"
       cy="14.863645"
       rx="0.25855878"
       ry="0.58807725" />
    <path
       style="fill:none;stroke:#000000;stroke-width:0.81633;stroke-linecap:round;stroke-linejoin:miter;stroke-miterlimit:4;stroke-dasharray:none;stroke-opacity:1"
       d="m 8.7299609,17.410481 c 0,0 0.327271,3.218159 2.9999781,2.345438 2.672707,-0.872721 3.163613,-2.618163 3.163613,-2.618163"
       id="path962-1" />
    <rect
       style="fill:#985c00;fill-opacity:1;stroke:#523100;stroke-width:0.242086;stroke-linejoin:round;stroke-miterlimit:4;stroke-dasharray:none;stroke-opacity:1"
       id="rect2082-1-8"
       width="2.2718873"
       height="6.0714307"
       x="19.559156"
       y="15.516133" />
    <path
       id="path931-4-6-5"
       style="fill:#2bbe28;fill-opacity:1;stroke:#10920e;stroke-width:0.432313;stroke-linecap:round;stroke-linejoin:round;stroke-miterlimit:4;stroke-dasharray:none;stroke-opacity:1"
       d="m 21.118948,9.3091274 a 1.6403043,1.9396252 0 0 0 -1.431071,1.0093376 2.12975,1.9553944 0 0 0 -0.0029,0 2.12975,1.9553944 0 0 0 -2.12799,1.883542 2.2223477,2.6650134 0 0 0 -1.139291,2.326989 2.2223477,2.6650134 0 0 0 2.222111,2.66506 2.2223477,2.6650134 0 0 0 0.828688,-0.192695 1.8519565,1.2615447 0 0 0 1.632001,0.665411 1.8519565,1.2615447 0 0 0 1.753955,-0.857132 2.645652,3.2011697 0 0 0 0.206658,-0.119522 1.4551086,2.05001 0 0 0 0.737841,0.282946 1.4551086,2.05001 0 0 0 1.455217,-2.049896 1.4551086,2.05001 0 0 0 -0.831163,-1.851836 1.5212497,2.05001 0 0 0 0.275414,-1.176176 1.5212497,2.05001 0 0 0 -1.521103,-2.0498963 1.5212497,2.05001 0 0 0 -0.730474,0.2522133 1.6403043,1.9396252 0 0 0 -1.319761,-0.7883468 1.6403043,1.9396252 0 0 0 -0.0082,0 z" />
  </g>
</svg>
