<?xml version="1.0" encoding="UTF-8" standalone="no"?>
<svg
   xmlns:dc="http://purl.org/dc/elements/1.1/"
   xmlns:cc="http://creativecommons.org/ns#"
   xmlns:rdf="http://www.w3.org/1999/02/22-rdf-syntax-ns#"
   xmlns:svg="http://www.w3.org/2000/svg"
   xmlns="http://www.w3.org/2000/svg"
   xmlns:sodipodi="http://sodipodi.sourceforge.net/DTD/sodipodi-0.dtd"
   xmlns:inkscape="http://www.inkscape.org/namespaces/inkscape"
   width="60"
   height="60"
   viewBox="0 0 15.874999 15.875"
   version="1.1"
   id="svg8"
   inkscape:version="1.0 (4035a4fb49, 2020-05-01)"
   sodipodi:docname="walk.svg"
   inkscape:export-filename="D:\dev\spelsylt7\src\img\walk.png"
   inkscape:export-xdpi="96"
   inkscape:export-ydpi="96">
  <defs
     id="defs2" />
  <sodipodi:namedview
     id="base"
     pagecolor="#ffffff"
     bordercolor="#666666"
     borderopacity="1.0"
     inkscape:pageopacity="0.0"
     inkscape:pageshadow="2"
     inkscape:zoom="5.6"
     inkscape:cx="66.88367"
     inkscape:cy="27.90503"
     inkscape:document-units="mm"
     inkscape:current-layer="layer1"
     inkscape:document-rotation="0"
     showgrid="false"
     units="px"
     inkscape:window-width="2560"
     inkscape:window-height="1377"
     inkscape:window-x="-8"
     inkscape:window-y="-8"
     inkscape:window-maximized="1" />
  <metadata
     id="metadata5">
    <rdf:RDF>
      <cc:Work
         rdf:about="">
        <dc:format>image/svg+xml</dc:format>
        <dc:type
           rdf:resource="http://purl.org/dc/dcmitype/StillImage" />
        <dc:title></dc:title>
      </cc:Work>
    </rdf:RDF>
  </metadata>
  <g
     inkscape:label="Layer 1"
     inkscape:groupmode="layer"
     id="layer1">
    <rect
       y="0.16746107"
       x="0.19344199"
       height="10.644006"
       width="15.774068"
       id="rect4747"
       style="fill:#00ffff;fill-opacity:1;stroke:none;stroke-width:0.355779;stroke-linecap:round;stroke-linejoin:round"
       ry="4.8159766" />
    <path
       id="path4717"
       d="m 0.0538485,9.973905 c 0,0 2.7569721,-3.3502438 4.2925008,-3.6992276 1.5355288,-0.3489837 4.7461803,-1.2912401 6.1421147,-0.9422563 1.395935,0.3489839 2.652277,0.6979677 3.245549,1.8147159 0.593274,1.1167478 2.093902,1.2912399 2.093902,1.2912399 V 15.836834 L 0.15854365,15.76704 Z"
       style="fill:#1a7100;fill-opacity:1;stroke:none;stroke-width:0.195431px;stroke-linecap:butt;stroke-linejoin:miter;stroke-opacity:1" />
    <rect
       y="9.5422945"
       x="1.607429"
       height="4.1403594"
       width="1.7686779"
       id="rect2082"
       style="fill:#985c00;fill-opacity:1;stroke:#523100;stroke-width:0.176389;stroke-linejoin:round;stroke-miterlimit:4;stroke-dasharray:none;stroke-opacity:1" />
    <rect
       style="fill:#985c00;fill-opacity:1;stroke:#523100;stroke-width:0.148712;stroke-linejoin:round;stroke-miterlimit:4;stroke-dasharray:none;stroke-opacity:1"
       id="rect2082-7"
       width="1.5388731"
       height="3.3824592"
       x="4.7901883"
       y="6.7071853" />
    <path
       sodipodi:nodetypes="cssscssc"
       id="path4691"
       d="m 0.193289,15.73067 c 0,0 5.8926264,-2.776503 6.2260763,-3.920098 C 6.7528152,10.666975 6.6131521,8.7831665 7.1548556,7.8170168 7.5033665,7.1954322 8.0447232,5.4734421 9.98477,5.3338497 c 0.221727,-0.015954 1.471714,0.3123778 1.471714,0.3123778 0,0 -1.8154482,1.0742878 -1.481999,2.7723556 0.333449,1.6980669 1.333799,3.8119889 1.778399,4.0892249 0.444599,0.277236 3.927298,1.386176 4.001398,3.292171"
       style="fill:#ffb900;fill-opacity:1;stroke:#bb8800;stroke-width:0.20066px;stroke-linecap:butt;stroke-linejoin:miter;stroke-opacity:1" />
    <path
       id="path931-4-8"
       style="fill:#2bbe28;fill-opacity:1;stroke:#10920e;stroke-width:0.265568;stroke-linecap:round;stroke-linejoin:round;stroke-miterlimit:4;stroke-dasharray:none;stroke-opacity:1"
       d="m 5.8467218,3.2491965 a 1.1110675,1.080586 0 0 0 -0.9693427,0.5623125 1.4425956,1.0893712 0 0 0 -0.00195,0 A 1.4425956,1.0893712 0 0 0 3.4340283,4.8608507 1.5053173,1.4847075 0 0 0 2.6623239,6.1572412 1.5053173,1.4847075 0 0 0 4.1674803,7.6419747 1.5053173,1.4847075 0 0 0 4.7287955,7.534622 1.254431,0.70282008 0 0 0 5.8342397,7.9053294 1.254431,0.70282008 0 0 0 7.0222877,7.4278119 1.7920443,1.7834059 0 0 0 7.1622694,7.3612215 0.9856244,1.1420825 0 0 0 7.6620483,7.5188533 0.9856244,1.1420825 0 0 0 8.6477498,6.3768394 0.9856244,1.1420825 0 0 0 8.0847713,5.3451626 1.0304254,1.1420825 0 0 0 8.2713215,4.6899014 1.0304254,1.1420825 0 0 0 7.2409968,3.5478824 1.0304254,1.1420825 0 0 0 6.7462076,3.6883923 1.1110675,1.080586 0 0 0 5.8522607,3.2491965 a 1.1110675,1.080586 0 0 0 -0.00554,0 z" />
    <path
       d="m 2.8217384,5.3094811 a 1.276987,1.3227107 0 0 0 -1.1140981,0.6883087 1.6580234,1.3334643 0 0 0 -0.00224,0 A 1.6580234,1.3334643 0 0 0 0.04875044,7.2822553 1.7301114,1.8173827 0 0 0 -0.83819521,8.8691254 1.7301114,1.8173827 0 0 0 0.89173136,10.686541 1.7301114,1.8173827 0 0 0 1.5368698,10.555134 1.4417594,0.86029949 0 0 0 2.8073937,11.008905 1.4417594,0.86029949 0 0 0 4.172857,10.42439 2.0596563,2.18301 0 0 0 4.3337431,10.34289 1.132811,1.3979866 0 0 0 4.9081556,10.535843 1.132811,1.3979866 0 0 0 6.0410528,9.1379305 1.132811,1.3979866 0 0 0 5.3940025,7.875086 1.1843023,1.3979866 0 0 0 5.6084118,7.0730018 1.1843023,1.3979866 0 0 0 4.4242244,5.6750931 1.1843023,1.3979866 0 0 0 3.855547,5.8470871 1.276987,1.3227107 0 0 0 2.8281039,5.3094811 a 1.276987,1.3227107 0 0 0 -0.00637,0 z"
       style="fill:#2bbe28;fill-opacity:1;stroke:#10920e;stroke-width:0.314994;stroke-linecap:round;stroke-linejoin:round;stroke-miterlimit:4;stroke-dasharray:none;stroke-opacity:1"
       id="path931-4" />
    <rect
       style="fill:#985c00;fill-opacity:1;stroke:#523100;stroke-width:0.147727;stroke-linejoin:round;stroke-miterlimit:4;stroke-dasharray:none;stroke-opacity:1"
       id="rect2082-1"
       width="1.333851"
       height="3.8508413"
       x="11.623352"
       y="7.3616762" />
    <path
       id="path931-4-6"
       style="fill:#2bbe28;fill-opacity:1;stroke:#10920e;stroke-width:0.26381;stroke-linecap:round;stroke-linejoin:round;stroke-miterlimit:4;stroke-dasharray:none;stroke-opacity:1"
       d="m 12.539125,3.4248449 a 0.9630414,1.2302191 0 0 0 -0.840198,0.6401783 1.2504005,1.2402206 0 0 0 -0.0017,0 1.2504005,1.2402206 0 0 0 -1.249365,1.1946482 1.3047658,1.6903009 0 0 0 -0.6688902,1.4759065 1.3047658,1.6903009 0 0 0 1.3046262,1.6903305 1.3047658,1.6903009 0 0 0 0.486532,-0.1222186 1.0873048,0.80014233 0 0 0 0.958167,0.4220418 1.0873048,0.80014233 0 0 0 1.029767,-0.543641 1.5532926,2.0303613 0 0 0 0.121332,-0.075811 A 0.85431092,1.3002312 0 0 0 14.11259,8.2857391 0.85431092,1.3002312 0 0 0 14.966964,6.985581 0.85431092,1.3002312 0 0 0 14.47898,5.8110435 0.89314311,1.3002312 0 0 0 14.640677,5.0650463 0.89314311,1.3002312 0 0 0 13.747621,3.7648869 0.89314311,1.3002312 0 0 0 13.318751,3.924855 0.9630414,1.2302191 0 0 0 12.543904,3.424841 a 0.9630414,1.2302191 0 0 0 -0.0048,0 z" />
    <ellipse
       ry="0.87391704"
       rx="0.60610366"
       cy="11.479788"
       cx="7.5328474"
       id="path958-6"
       style="fill:#231500;fill-opacity:1;stroke:none;stroke-width:0.42191;stroke-linecap:round;stroke-linejoin:round;stroke-miterlimit:4;stroke-dasharray:none;stroke-opacity:1" />
    <ellipse
       ry="1.0571576"
       rx="0.62019914"
       cy="11.300043"
       cx="9.7385998"
       id="path960-3"
       style="fill:#231500;fill-opacity:1;stroke:none;stroke-width:0.42191;stroke-linecap:round;stroke-linejoin:round;stroke-miterlimit:4;stroke-dasharray:none;stroke-opacity:1" />
    <ellipse
       style="fill:#ffffff;fill-opacity:1;stroke:none;stroke-width:0.166971;stroke-linecap:round;stroke-linejoin:round;stroke-miterlimit:4;stroke-dasharray:none;stroke-opacity:1"
       id="path958-7-4"
       cx="7.317378"
       cy="11.296367"
       rx="0.19098099"
       ry="0.43437535" />
    <ellipse
       ry="0.43437535"
       rx="0.19098099"
       cy="11.146295"
       cx="9.6122684"
       id="path958-7-2-2"
       style="fill:#ffffff;fill-opacity:1;stroke:none;stroke-width:0.166971;stroke-linecap:round;stroke-linejoin:round;stroke-miterlimit:4;stroke-dasharray:none;stroke-opacity:1" />
    <path
       id="path962-1"
       d="m 6.6417106,13.027479 c 0,0 0.2417344,2.377051 2.2158934,1.732426 1.974159,-0.644622 2.33676,-1.933871 2.33676,-1.933871"
       style="fill:none;stroke:#000000;stroke-width:0.602971;stroke-linecap:round;stroke-linejoin:miter;stroke-miterlimit:4;stroke-dasharray:none;stroke-opacity:1" />
    <rect
       y="11.760537"
       x="14.64055"
       height="4.484581"
       width="1.6780992"
       id="rect2082-1-8"
       style="fill:#985c00;fill-opacity:1;stroke:#523100;stroke-width:0.178813;stroke-linejoin:round;stroke-miterlimit:4;stroke-dasharray:none;stroke-opacity:1" />
    <path
       d="m 15.792669,7.0435231 a 1.2115888,1.4326782 0 0 0 -1.057041,0.7455336 1.5731113,1.4443258 0 0 0 -0.0021,0 1.5731113,1.4443258 0 0 0 -1.571812,1.3912528 1.6415074,1.9684764 0 0 0 -0.841522,1.7188005 1.6415074,1.9684764 0 0 0 1.641332,1.968511 1.6415074,1.9684764 0 0 0 0.6121,-0.142332 1.3679228,0.93182307 0 0 0 1.205456,0.491496 1.3679228,0.93182307 0 0 0 1.295535,-0.633109 1.9541754,2.364501 0 0 0 0.152645,-0.08828 1.0747964,1.5142124 0 0 0 0.544997,0.208994 1.0747964,1.5142124 0 0 0 1.074876,-1.514128 1.0747964,1.5142124 0 0 0 -0.613928,-1.3678335 1.1236507,1.5142124 0 0 0 0.203432,-0.8687674 1.1236507,1.5142124 0 0 0 -1.123543,-1.5141281 1.1236507,1.5142124 0 0 0 -0.539555,0.1862944 1.2115888,1.4326782 0 0 0 -0.974823,-0.5823023 1.2115888,1.4326782 0 0 0 -0.0061,0 z"
       style="fill:#2bbe28;fill-opacity:1;stroke:#10920e;stroke-width:0.319322;stroke-linecap:round;stroke-linejoin:round;stroke-miterlimit:4;stroke-dasharray:none;stroke-opacity:1"
       id="path931-4-6-5" />
  </g>
</svg>
